# xmcd
#
# Track frame offsets:
#	150
#	14142
#	26678
#	40761
#	52946
#	62993
#	75055
#	86662
#	100403
#	112304
#	124170
#	135578
#	148604
#	161045
#	174814
#	188556
#	203517
#	214762
#	229833
#	241907
#	256318
#	269023
#	285359
#	301937
#	313843
#	327571
#
# Disc length: 4559 seconds
# Revision: 3
# Processed by: cddbd v1.5.2PL0 Copyright (c) Steve Scherf et al.
# Submitted via: dBpowerAMP V12.0
#
DISCID=7111cd1a
DTITLE=Various Artist - Roll and Tumble Blues
DYEAR=2004
DGENRE=Blues
TTITLE0=Muddy Waters - I Be's Troubled
TTITLE1=Black Ace - Black Ace
TTITLE2=Gabriel Brown - I'm Gonna Take It Easy
TTITLE3=Dan Pickett - Baby How Long
TTITLE4=John Lee - Blind's Blues
TTITLE5=Lightnin' Hopkins - Jailhouse Blues
TTITLE6=Sister Terrell, O.M. - Swing Low, Chariot
TTITLE7=Robert Nighthawk - Sweet Black Angel (Black Angel Blues)
TTITLE8=Muddy Waters - You're Gonna Miss Me (When I'm Dead And Gone)
TTITLE9=Pinetop Slim - Applejack Boogie
TTITLE10=Johnny Shines - Ramblin'
TTITLE11=Sims, Frankie Lee - Single Man Blues
TTITLE12=Elmore James - Dust My Broom
TTITLE13=Donna Hightower - I Ain't In The Mood
TTITLE14=St.Louis Jimmy - So Nice &Kind
TTITLE15=John Lee - Down At The Depot
TTITLE16=Johnny Shines - Fish Tail
TTITLE17=Homesick James - My Kind Of Woman
TTITLE18=Taylor, Hound Dog - My Baby's Coming Home
TTITLE19=Muddy Waters - Country Boy
TTITLE20=Clapton, Eric/Page, Jimmy - Freight Loader
TTITLE21=Fleetwood Mac/Spencer, Jeremy - Talk To Me Baby
TTITLE22=Peter Green - Do You Give A Damn For Me
TTITLE23=All-Stars, The/Beck, Jeff - Steelin'
TTITLE24=Knight, Brian &Vines, Toni - Meet Me In The Bottom
TTITLE25=Blues Band, The/Kelly, Dave - Rollin'&Tumblin'
EXTD=
EXTT0=
EXTT1=
EXTT2=
EXTT3=
EXTT4=
EXTT5=
EXTT6=
EXTT7=
EXTT8=
EXTT9=
EXTT10=
EXTT11=
EXTT12=
EXTT13=
EXTT14=
EXTT15=
EXTT16=
EXTT17=
EXTT18=
EXTT19=
EXTT20=
EXTT21=
EXTT22=
EXTT23=
EXTT24=
EXTT25=
PLAYORDER=
